<?xml version="1.0" encoding="utf-8"?>
<!-- Generator: Adobe Illustrator 16.0.0, SVG Export Plug-In . SVG Version: 6.00 Build 0)  -->
<!DOCTYPE svg PUBLIC "-//W3C//DTD SVG 1.1//EN" "http://www.w3.org/Graphics/SVG/1.1/DTD/svg11.dtd">
<svg version="1.1" id="Layer_1" xmlns="http://www.w3.org/2000/svg" xmlns:xlink="http://www.w3.org/1999/xlink" x="0px" y="0px"
	 width="100px" height="100.25px" viewBox="0 0 100 100.25" enable-background="new 0 0 100 100.25" xml:space="preserve">
<polygon fill="none" stroke="#39C6BA" stroke-width="2" stroke-miterlimit="10" points="59.354,29.326 64.105,29.326 69.953,50.33 
	71.779,50.33 73.15,50.33 73.15,62.932 59.354,62.932 "/>
<polyline fill="none" stroke="#39C6BA" stroke-width="2" stroke-miterlimit="10" points="59.354,46.129 63.557,46.129 
	63.557,56.631 "/>
<polyline fill="none" stroke="#39C6BA" stroke-width="2.0933" stroke-miterlimit="10" points="71.779,49.532 71.779,47.281 
	77.875,47.281 77.875,65.75 71.779,65.75 71.779,63.337 "/>
<polyline fill="none" stroke="#39C6BA" stroke-width="2" stroke-miterlimit="10" points="77.875,48.354 77.875,46.208 
	84.043,46.208 "/>
<polyline fill="none" stroke="#39C6BA" stroke-width="2" stroke-miterlimit="10" points="77.875,65.135 77.875,67.189 
	84.043,67.189 "/>
<path fill="none" stroke="#39C6BA" stroke-width="2" stroke-miterlimit="10" d="M49.182,47.281c2.039-0.84,3.25-1.89,3.25-3.03
	c0-2.76-7.09-5-15.831-5c-8.75,0-15.84,2.24-15.84,5c0,1.14,1.21,2.189,3.25,3.03"/>
<path fill="none" stroke="#39C6BA" stroke-width="2" stroke-miterlimit="10" d="M24.011,47.281c2.89,1.199,7.46,1.971,12.59,1.971
	s9.69-0.771,12.581-1.971"/>
<path fill="none" stroke="#39C6BA" stroke-width="2" stroke-miterlimit="10" d="M20.761,51.322c0,1.479,2.04,2.809,5.27,3.729h0.01
	c2.8,0.791,6.51,1.271,10.56,1.271c4.05,0,7.75-0.48,10.55-1.271h0.01c3.229-0.92,5.271-2.25,5.271-3.729"/>
<line fill="none" stroke="#39C6BA" stroke-width="2" stroke-miterlimit="10" x1="26.042" y1="54.051" x2="26.031" y2="54.051"/>
<line fill="none" stroke="#39C6BA" stroke-width="2" stroke-miterlimit="10" x1="47.161" y1="54.051" x2="47.151" y2="54.051"/>
<path fill="none" stroke="#39C6BA" stroke-width="2" stroke-miterlimit="10" d="M20.761,57.771c0,2.76,7.09,5,15.84,5
	c8.741,0,15.831-2.24,15.831-5"/>
<polyline fill="none" stroke="#39C6BA" stroke-width="2" stroke-miterlimit="10" points="20.761,57.771 20.761,50.322 
	20.761,44.251 "/>
<line fill="none" stroke="#39C6BA" stroke-width="2" stroke-miterlimit="10" x1="52.43" y1="44.251" x2="52.43" y2="57.768"/>
<circle fill="none" stroke="#39C6BA" stroke-width="2" stroke-miterlimit="10" cx="50.015" cy="50.154" r="49.333"/>
</svg>
