<svg width="962" height="601" viewBox="0 0 962 601" fill="none" xmlns="http://www.w3.org/2000/svg">
<g opacity="0.5">
<path d="M962 0H0V601H962V0Z" fill="white"/>
<path d="M909.03 480.68L746.722 480.289L672.468 480.109L656.535 480.079L598.725 479.929L528.258 479.748L467.171 479.598H463.714L447.601 479.568L306.277 479.207L235.329 479.027L228.625 478.997L189.755 478.907L88.444 478.666C88.444 478.666 -37.2173 240.911 132.666 152.864C351.521 39.4557 507.575 202.838 591.39 196.647C714.706 187.542 955.988 118.637 909.03 480.68Z" fill="#EBF3FA"/>
<path d="M650.462 288.69C650.462 288.69 692.189 225.014 710.046 233.338C727.903 241.692 650.462 288.69 650.462 288.69Z" fill="#DFEBFD"/>
<path d="M648.869 299.448C648.869 299.448 738.305 231.265 767.496 249.355C796.686 267.445 744.949 276.52 725.408 278.323C705.898 280.096 648.869 299.448 648.869 299.448Z" fill="#DFEBFD"/>
<path d="M642.105 289.472C642.105 289.472 641.985 286.857 641.774 283.011C641.323 275.528 640.512 263.478 639.429 257.348C637.776 248.063 643.608 239.859 653.889 247.281C664.171 254.704 644.63 286.256 644.63 286.256L642.105 289.472Z" fill="#DFEBFD"/>
<path d="M340.578 479.057L299.813 478.937C298.521 478.727 297.258 478.757 295.965 478.937L273.629 478.877C265.662 472.957 264.43 455.047 264.43 455.047C271.134 459.795 285.834 460.065 287.187 457.661C288.54 455.257 268.668 449.037 265.843 447.264C263.017 445.491 259.65 437.558 267.015 426.319C274.38 415.081 293.951 425.748 293.951 425.748C293.951 425.748 301.016 451.952 304.954 453.815C308.892 455.678 303.3 430.226 303.3 430.226C311.508 432.059 328.613 448.466 328.613 448.466C328.613 448.466 319.083 473.197 323.352 474.039C327.621 474.88 330.687 451.712 330.687 451.712C337.632 456.55 341.871 467.878 341.871 467.878C342.953 472.446 342.231 476.112 340.578 479.057Z" fill="#CDE0FB"/>
<path d="M146.885 198.45C157.107 180.871 187.53 195.415 187.53 195.415C187.53 195.415 200.336 234.42 206.439 236.914C212.542 239.408 202.02 201.425 202.02 201.425C214.586 203.529 241.763 226.938 241.763 226.938C241.763 226.938 229.377 265.101 235.9 266.003C242.424 266.904 245.13 231.655 245.13 231.655C256.012 238.387 263.378 255.185 263.378 255.185C271.164 281.418 237.073 290.043 237.073 290.043C237.073 290.043 233.075 303.355 237.223 320.994C237.223 320.994 238.335 324.33 238.937 329.679L235.72 328.807C235.69 327.876 235.63 326.944 235.51 326.073C235.51 326.073 235.51 326.073 235.51 326.043V326.013C235.419 325.442 235.299 324.66 235.119 323.699C234.638 321.505 234.367 319.882 234.217 318.74C232.894 311.889 230.76 302.844 228.355 300.41C228.355 300.41 228.836 299.989 229.437 299.118C229.076 299.538 228.715 299.959 228.355 300.41C219.637 310.777 191.468 305.308 176.888 298.006C162.337 290.704 170.214 288.18 180.405 283.341C190.596 278.534 207.491 285.054 213.354 283.672C219.246 282.29 212.482 277.512 201.99 275.528C191.498 273.545 183.622 282.44 166.606 279.555C149.591 276.67 145.352 242.083 145.352 242.083C155.844 248.724 178.09 247.913 179.954 244.186C181.818 240.46 151.274 232.677 146.855 230.213C142.406 227.719 136.664 216.029 146.885 198.45Z" fill="#DFEBFD"/>
<path d="M382.124 287.579C393.999 271.201 422.649 288.63 422.649 288.63C422.649 288.63 431.427 328.507 437.199 331.572C442.971 334.637 436.357 296.023 436.357 296.023C448.593 299.358 473.124 325.231 473.124 325.231C473.124 325.231 457.04 361.772 463.413 363.304C469.787 364.867 475.98 330.249 475.98 330.249C486.081 338.002 491.672 355.341 491.672 355.341C496.753 382.056 462.151 387.194 462.151 387.194C462.151 387.194 456.86 399.965 459.205 417.845C459.205 417.845 459.956 421.271 460.016 426.62L456.92 425.448C456.98 424.516 457.01 423.615 456.98 422.713C456.98 422.713 456.98 422.713 456.98 422.683V422.653C456.95 422.082 456.89 421.301 456.83 420.309C456.589 418.086 456.469 416.463 456.439 415.321C455.808 408.41 454.605 399.244 452.471 396.6C452.471 396.6 453.012 396.239 453.673 395.428C453.282 395.789 452.892 396.179 452.471 396.6C442.821 405.975 415.464 397.772 401.785 389.087C388.107 380.403 396.164 378.69 406.746 374.934C417.298 371.178 433.351 379.321 439.303 378.54C445.256 377.758 439.033 372.35 428.872 369.345C418.71 366.34 409.992 374.363 393.458 369.795C376.924 365.258 376.172 330.61 376.172 330.61C385.912 338.213 407.978 339.655 410.203 336.139C412.427 332.623 382.996 321.896 378.848 319.011C374.759 316.096 370.25 303.956 382.124 287.579Z" fill="#DFEBFD"/>
<path d="M461.339 458.503C461.339 458.503 457.04 473.618 457.852 479.478L441.528 479.448C441.197 476.142 441.979 472.536 444.745 468.84C444.775 468.84 453.102 460.186 461.339 458.503Z" fill="#DFEBFD"/>
<path d="M523.238 479.658L461.369 479.508C463.804 473.288 464.496 456.399 464.496 456.399C464.496 456.399 486.531 448.196 494.739 449.758C494.739 449.758 479.617 470.733 483.946 470.583C488.275 470.433 505.02 449.368 505.02 449.368C505.02 449.368 527.026 447.354 529.34 460.486C531.415 472.236 526.605 478.186 523.238 479.658Z" fill="#DFEBFD"/>
<path d="M653.168 479.989L594.606 479.838C598.394 478.216 603.354 476.683 608.675 474.88C622.023 470.343 640.181 476.593 653.168 479.989Z" fill="#DFEBFD"/>
<path d="M682.93 480.259L629.93 480.109C631.042 477.765 624.278 472.957 614.478 469.952C602.002 466.106 591.209 475.842 570.917 469.982C550.655 464.152 550.234 421.541 550.234 421.541C562.079 431.037 589.195 433.141 591.961 428.844C594.726 424.546 558.712 410.904 553.691 407.328C548.671 403.722 543.29 388.727 558.14 368.774C572.991 348.82 607.924 370.637 607.924 370.637C607.924 370.637 618.115 419.799 625.18 423.645C632.244 427.491 624.669 379.922 624.669 379.922C639.64 384.219 669.432 416.373 669.432 416.373C669.432 416.373 649.14 461.027 656.956 463.04C664.772 465.054 672.919 422.563 672.919 422.563C685.215 432.239 691.828 453.665 691.828 453.665C694.023 465.925 689.483 474.399 682.93 480.259Z" fill="#DFEBFD"/>
<path d="M198.113 478V264.719H274.725C302.166 264.719 323.016 269.748 337.273 279.807C351.629 289.865 358.807 304.465 358.807 323.605C358.807 334.641 356.268 344.064 351.189 351.877C346.111 359.689 338.641 365.451 328.777 369.162C339.91 372.092 348.455 377.561 354.412 385.568C360.369 393.576 363.348 403.342 363.348 414.865C363.348 435.764 356.707 451.486 343.426 462.033C330.242 472.482 310.662 477.805 284.686 478H198.113ZM249.529 387.326V438.449H283.221C292.498 438.449 299.627 436.35 304.607 432.15C309.588 427.854 312.078 421.848 312.078 414.133C312.078 396.359 303.24 387.424 285.564 387.326H249.529ZM249.529 353.635H276.336C287.566 353.537 295.574 351.486 300.359 347.482C305.145 343.479 307.537 337.57 307.537 329.758C307.537 320.773 304.949 314.328 299.773 310.422C294.598 306.418 286.248 304.416 274.725 304.416H249.529V353.635ZM501.775 421.311C501.775 413.791 499.09 407.932 493.719 403.732C488.445 399.533 479.119 395.188 465.74 390.695C452.361 386.203 441.424 381.857 432.928 377.658C405.291 364.084 391.473 345.432 391.473 321.701C391.473 309.885 394.891 299.484 401.727 290.5C408.66 281.418 418.426 274.387 431.023 269.406C443.621 264.328 457.781 261.789 473.504 261.789C488.836 261.789 502.557 264.523 514.666 269.992C526.873 275.461 536.346 283.273 543.084 293.43C549.822 303.488 553.191 315.012 553.191 328H501.922C501.922 319.309 499.236 312.57 493.865 307.785C488.592 303 481.414 300.607 472.332 300.607C463.152 300.607 455.877 302.658 450.506 306.76C445.232 310.764 442.596 315.891 442.596 322.141C442.596 327.609 445.525 332.59 451.385 337.082C457.244 341.477 467.547 346.066 482.293 350.852C497.039 355.539 509.148 360.617 518.621 366.086C541.668 379.367 553.191 397.678 553.191 421.018C553.191 439.67 546.16 454.318 532.098 464.963C518.035 475.607 498.748 480.93 474.236 480.93C456.951 480.93 441.277 477.854 427.215 471.701C413.25 465.451 402.703 456.955 395.574 446.213C388.543 435.373 385.027 422.922 385.027 408.859H436.59C436.59 420.285 439.52 428.732 445.379 434.201C451.336 439.572 460.955 442.258 474.236 442.258C482.732 442.258 489.422 440.451 494.305 436.838C499.285 433.127 501.775 427.951 501.775 421.311ZM746.844 264.719V404.318C746.844 420.139 743.475 433.859 736.736 445.48C729.998 457.004 720.33 465.793 707.732 471.848C695.135 477.902 680.242 480.93 663.055 480.93C637.078 480.93 616.619 474.191 601.678 460.715C586.736 447.238 579.119 428.781 578.826 405.344V264.719H630.535V406.369C631.121 429.709 641.961 441.379 663.055 441.379C673.699 441.379 681.756 438.449 687.225 432.59C692.693 426.73 695.428 417.209 695.428 404.025V264.719H746.844Z" fill="#97D9BA"/>
<path d="M182.87 343.441C182.87 343.321 181.247 339.986 181.758 339.745C182.269 339.475 183.201 339.535 183.291 340.106C183.411 340.677 182.87 343.441 182.87 343.441Z" fill="#FFB27D"/>
<path d="M158.73 301.912C158.73 301.912 149.26 290.523 144.24 297.795C144.24 297.795 140.482 299.358 139.129 305.729C137.746 312.219 142.075 317.178 144.3 315.946C145.743 315.164 146.825 317.658 146.825 317.658L158.73 301.912Z" fill="#233862"/>
<path d="M170.484 362.523C178.03 359.759 185.275 346.837 185.275 346.837L182.9 345.184C180.916 348.069 172.018 353.628 172.018 353.628C171.807 351.194 171.506 348.971 171.146 346.957C168.681 333.315 162.999 329.288 161.496 328.447C161.255 328.296 161.105 328.266 161.105 328.266C161.105 328.266 161.105 328.356 161.135 328.567C161.165 328.987 161.195 329.799 161.285 330.941C161.886 339.355 164.201 364.837 170.484 362.523Z" fill="#FFB27D"/>
<path d="M145.262 296.654C145.262 296.654 143.999 291.545 136.484 293.138C136.484 293.138 140.061 292.687 141.053 294.069C141.053 294.069 138.197 292.777 136.424 293.859C134.65 294.941 134.349 298.607 134.62 299.719C134.89 300.831 136.844 304.166 138.167 304.166C139.46 304.166 141.023 303.024 141.023 303.024L145.262 296.654Z" fill="#233862"/>
<path d="M134.049 376.436C137.776 368.082 139.55 365.738 139.61 363.094C139.67 361.021 138.648 358.767 136.634 353.268C136.153 351.976 135.852 350.653 135.642 349.301C134.079 338.693 140.211 327.244 143.999 326.463C145.051 326.193 146.855 322.346 146.825 316.186L147.306 316.276L155.333 317.869C155.333 317.869 155.152 320.393 155.152 322.767C155.152 324.75 155.273 326.613 155.724 326.854C156.295 326.914 156.656 326.944 156.656 326.944C156.656 326.944 163.36 336.229 163.901 344.854C164.442 353.478 158.55 357.234 163.931 374.513C169.462 392.152 132.004 381.064 134.049 376.436Z" fill="#FFB27D"/>
<path d="M155.363 317.869C155.363 317.869 155.183 320.393 155.183 322.767C150.703 322.647 148.328 318.56 147.336 316.276L155.363 317.869Z" fill="#E8945B"/>
<path d="M146.525 315.435C146.525 315.435 144.18 311.709 143.609 308.553C143.218 306.3 144.36 297.886 152.808 299.088C152.808 299.088 155.273 299.328 157.558 300.891C159.391 302.123 162.037 304.797 159.091 312.129L158.309 314.593L146.525 315.435Z" fill="#233862"/>
<path d="M156.866 320.123C156.866 320.123 146.254 320.303 146.224 313.692C146.224 307.081 144.841 302.634 151.635 302.243C158.429 301.852 159.752 304.376 160.263 306.57C160.804 308.794 159.632 319.912 156.866 320.123Z" fill="#FFB27D"/>
<path d="M156.475 302.093C156.475 302.093 153.559 309.846 149.11 310.987C144.661 312.129 142.707 310.927 142.707 310.927C142.707 310.927 146.134 308.223 146.855 303.475C146.825 303.505 154.281 298.396 156.475 302.093Z" fill="#233862"/>
<path d="M155.754 302.724C155.754 302.724 157.918 304.467 158.459 306.149C159 307.832 159.241 311.288 160.233 311.198C160.233 311.198 162.428 305.909 159.962 302.934C157.347 299.749 155.754 302.724 155.754 302.724Z" fill="#233862"/>
<path d="M143.458 456.55C146.134 467.187 150.162 475.331 150.162 475.331L153.679 475.09C153.679 475.09 151.966 466.917 152.056 455.889C152.116 448.166 153.078 439.061 156.145 430.346C166.636 400.416 164.923 378.66 164.923 378.66L145.202 380.974L144.27 381.094C144.18 390.139 143.939 402.43 143.759 412.046C143.578 420.7 143.428 427.161 143.428 427.161C139.61 435.274 140.993 446.783 143.458 456.55Z" fill="#163560"/>
<path d="M120.25 385.301L123.437 386.263C123.437 386.263 133.958 368.804 134.92 364.266C135.221 362.794 136.003 359.819 136.905 356.513C138.738 349.662 141.143 341.248 141.143 341.248L141.925 337.852L144.601 326.253C144.601 326.253 139.46 326.764 136.484 328.026C135.492 328.446 134.74 328.927 134.469 329.528C132.275 334.366 130.08 346.597 128.517 355.311C127.645 360.179 126.984 363.936 126.653 364.747C125.661 366.971 122.745 379.261 120.25 385.301Z" fill="#FFB27D"/>
<path d="M132.155 454.867C133.297 466.947 138.287 474.76 138.287 474.76L139.971 475.962C139.971 475.962 141.564 467.458 142.677 457.301C143.759 447.655 145.202 437.468 146.855 434.373C153.439 422.022 155.393 375.445 155.393 375.445L135.401 374.453C133.387 377.819 132.515 383.378 132.305 389.658C131.794 405.555 135.522 426.289 136.063 429.264C136.093 429.505 136.033 429.715 135.943 429.925C131.974 437.889 131.403 446.873 132.155 454.867Z" fill="#1C468A"/>
<path d="M156.145 302.994C156.145 302.994 154.07 311.108 148.449 313.722C148.449 313.722 154.07 308.734 154.551 303.355C155.032 298.006 156.145 302.994 156.145 302.994Z" fill="#233862"/>
<path d="M131.553 382.476C131.523 383.137 131.553 383.678 131.674 384.069C132.095 385.421 133.568 386.022 137.085 385.662C139.249 385.451 140.211 381.815 140.632 378.75C141.925 383.168 143.729 385.632 146.074 386.172C149.501 386.924 166.757 389.027 167.899 380.824C169.132 371.809 165.434 355.822 165.223 347.198C165.735 344.133 165.915 341.488 165.855 339.204C165.704 333.074 163.901 329.619 162.518 328.236C162.127 327.936 161.736 327.755 160.143 327.485C159.331 327.335 158.219 327.184 156.656 326.974L156.024 326.914C156.325 327.425 160.233 333.345 159.932 334.877C159.602 336.47 145.743 335.028 144.781 334.156C143.819 333.285 142.316 326.583 142.316 326.583C142.316 326.583 137.416 327.124 135.011 328.867C135.011 328.867 135.011 328.867 135.041 328.897C134.74 329.108 134.53 329.318 134.409 329.558C131.854 334.426 129.299 346.747 127.495 355.522C131.854 357.926 135.672 357.204 136.844 356.904C135.281 367.001 131.764 377.849 131.553 382.476Z" fill="#F99746"/>
<path d="M182.93 345.184C182.93 344.854 182.66 340.106 183.501 339.114C184.343 338.123 186.057 336.71 186.628 336.74C187.169 336.77 189.303 339.595 188.642 341.759C188.011 343.922 185.305 346.837 185.305 346.837L182.93 345.184Z" fill="#FFB27D"/>
<path d="M179.052 339.385L183.982 340.857C184.133 340.917 184.313 340.827 184.373 340.647L187.169 331.271C187.229 331.121 187.139 330.941 186.959 330.881L182.028 329.408C181.878 329.348 181.698 329.438 181.638 329.619L178.842 338.994C178.782 339.144 178.872 339.325 179.052 339.385Z" fill="#F1A34F"/>
<path d="M180.315 339.775L184.764 341.098C185.065 341.188 185.365 341.007 185.456 340.737L188.131 331.812C188.221 331.512 188.041 331.211 187.77 331.121L183.321 329.799C183.021 329.709 182.72 329.889 182.63 330.159L179.954 339.084C179.864 339.385 180.044 339.685 180.315 339.775Z" fill="#D86713"/>
<path d="M132.155 454.867C133.297 466.947 138.287 474.76 138.287 474.76L140.001 476.323C140.001 476.323 141.564 467.458 142.677 457.331C141.474 457.421 136.273 457.601 132.155 454.867Z" fill="#FFB27D"/>
<path d="M143.458 456.55C146.134 467.187 150.162 475.331 150.162 475.331L153.679 475.091C153.679 475.091 151.966 466.917 152.056 455.889C150.853 456.49 148.388 457.091 143.458 456.55Z" fill="#D9935C"/>
<path d="M148.148 478.277H150.373C151.124 478.156 151.665 477.946 152.447 477.856C153.619 477.706 154.16 478.186 154.251 478.277L154.281 478.307H163.78C164.021 477.976 163.78 477.165 163.57 476.594C163.42 476.203 163.089 475.903 162.668 475.782C161.646 475.482 159.662 475.242 157.858 473.589C156.836 472.657 152.928 470.193 152.928 470.193H152.898C152.808 470.193 152.417 470.313 150.613 471.816C149.681 472.597 148.118 470.734 148.118 470.734C148.118 470.734 147.817 470.974 147.607 471.425C147.426 471.786 147.306 472.267 147.396 472.898C147.547 473.739 147.096 475.332 146.705 476.413C146.495 477.075 146.284 477.525 146.284 477.525C146.284 477.525 146.224 478.036 148.148 478.277Z" fill="#233862"/>
<path d="M147.607 471.394C148.148 471.785 149.26 472.506 150.012 472.596C151.034 472.717 152.898 470.162 152.898 470.162H152.868C152.778 470.162 152.387 470.283 150.583 471.785C149.651 472.566 148.088 470.703 148.088 470.703C148.088 470.703 147.817 470.944 147.607 471.394Z" fill="#466AA5"/>
<path d="M148.148 478.276H150.373C151.124 478.156 151.665 477.945 152.447 477.855C153.619 477.705 154.16 478.186 154.251 478.276L154.281 478.306H163.78C164.021 477.975 163.78 477.164 163.57 476.593C163.269 476.323 163.209 477.705 163.029 477.915C162.879 478.126 155.273 478.005 154.852 477.675C154.401 477.344 153.108 476.803 151.274 477.224C149.681 477.615 147.336 476.623 146.735 476.383C146.525 477.044 146.314 477.495 146.314 477.495C146.314 477.495 146.224 478.036 148.148 478.276Z" fill="#466AA5"/>
<path d="M136.213 478.277H138.438C139.189 478.156 139.73 477.946 140.512 477.856C141.684 477.706 142.226 478.186 142.316 478.277L142.346 478.307H151.846C152.086 477.976 151.846 477.165 151.635 476.594C151.485 476.203 151.154 475.903 150.733 475.782C149.711 475.482 147.727 475.242 145.923 473.589C144.901 472.657 140.993 470.193 140.993 470.193H140.963C140.873 470.193 140.482 470.313 138.678 471.816C137.746 472.597 136.183 470.734 136.183 470.734C136.183 470.734 135.882 470.974 135.672 471.425C135.492 471.786 135.371 472.267 135.462 472.898C135.612 473.739 135.161 475.332 134.77 476.413C134.56 477.075 134.349 477.525 134.349 477.525C134.349 477.525 134.289 478.036 136.213 478.277Z" fill="#233862"/>
<path d="M135.672 471.394C136.213 471.785 137.325 472.506 138.077 472.596C139.099 472.717 140.963 470.162 140.963 470.162H140.933C140.843 470.162 140.452 470.283 138.648 471.785C137.716 472.566 136.153 470.703 136.153 470.703C136.153 470.703 135.882 470.944 135.672 471.394Z" fill="#466AA5"/>
<path d="M136.213 478.276H138.438C139.189 478.156 139.73 477.945 140.512 477.855C141.684 477.705 142.226 478.186 142.316 478.276L142.346 478.306H151.846C152.086 477.975 151.846 477.164 151.635 476.593C151.334 476.323 151.274 477.705 151.094 477.915C150.944 478.126 143.338 478.005 142.917 477.675C142.496 477.344 141.173 476.803 139.34 477.224C137.746 477.615 135.401 476.623 134.8 476.383C134.59 477.044 134.379 477.495 134.379 477.495C134.379 477.495 134.289 478.036 136.213 478.276Z" fill="#466AA5"/>
<path d="M161.917 327.936C161.917 327.936 168.53 331.271 170.755 344.704C170.755 344.704 168.59 347.679 165.524 348.55C165.073 348.67 164.622 348.76 164.171 348.79C160.413 349.001 161.917 327.936 161.917 327.936Z" fill="#F99746"/>
<path d="M187.109 337.101C187.109 337.101 185.065 333.946 184.554 334.126C183.832 334.366 186.417 338.363 186.417 338.363C186.417 338.363 184.523 335.388 184.223 335.598C183.531 336.109 184.614 337.972 185.696 339.415C185.696 339.415 183.772 337.672 183.712 337.972C183.501 339.084 185.816 341.759 185.816 341.759L187.109 338.784V337.101Z" fill="#FFB27D"/>
<path d="M188.642 340.046C188.552 339.655 188.041 332.143 187.83 332.864C187.62 333.585 187.109 337.522 187.109 337.522L188.642 340.046Z" fill="#FFB27D"/>
<path d="M154.792 316.216C154.792 316.216 154.972 316.997 156.926 316.877C156.926 316.877 158.55 316.787 158.519 315.916C158.489 315.916 156.896 315.315 154.792 316.216Z" fill="white"/>
<path d="M120.25 385.301C120.25 385.301 116.402 387.855 115.801 388.937C115.199 390.019 113.847 393.986 113.847 393.986C113.847 393.986 114.839 394.136 115.801 392.423C116.763 390.71 120.009 390.86 121.092 389.929C122.174 388.997 123.437 386.263 123.437 386.263L120.25 385.301Z" fill="#FFB27D"/>
<path d="M123.016 387.104C123.016 387.104 122.384 390.109 121.603 391.011C120.821 391.882 119.739 393.354 119.288 392.964C118.837 392.573 119.769 389.298 119.769 389.298L123.016 387.104Z" fill="#FFB27D"/>
<path d="M116.342 389.298C116.252 389.448 112.854 393.024 112.854 393.024C112.854 393.024 114.087 393.565 114.418 393.024C114.778 392.453 116.342 389.298 116.342 389.298Z" fill="#FFB27D"/>
<path d="M394.72 212.123L426.076 216.991L405.393 202.537L404.28 207.075L396.644 208.367L394.72 212.123Z" fill="#9EC3F6"/>
<path d="M426.076 216.991L400.102 203.198L374.488 201.605L426.076 216.991Z" fill="white"/>
<path d="M405.393 202.537L426.076 216.991L410.203 194.604L405.393 202.537Z" fill="white"/>
<path d="M853.745 302.093L828.072 305.759L845.087 294.159L845.959 297.886L852.212 298.997L853.745 302.093Z" fill="#9EC3F6"/>
<path d="M828.072 305.759L849.416 294.76L870.369 293.709L828.072 305.759Z" fill="white"/>
<path d="M845.087 294.159L828.072 305.759L841.239 287.609L845.087 294.159Z" fill="white"/>
<path d="M666.546 372.049C666.546 372.049 663.179 377.037 661.255 387.495C659.571 396.66 658.098 400.026 655.663 401.919C653.228 403.812 639.73 409.341 639.73 409.341L640.752 411.715C640.752 411.715 660.563 409.011 662.788 405.705C665.012 402.4 673.49 382.837 672.829 378.33C672.167 373.822 666.546 372.049 666.546 372.049Z" fill="#F4A269"/>
<path d="M611.531 476.593C611.321 478.516 608.585 478.456 605.519 478.005C602.422 477.555 603.234 478.366 598.905 478.276C594.576 478.216 593.103 476.713 592.922 476.082C592.742 475.541 594.846 475.121 597.101 474.64C597.372 474.58 597.672 474.52 597.943 474.459C600.468 473.889 602.212 472.055 604.406 470.493C606.511 468.99 609.307 463.431 609.307 463.431L615.229 463.341C615.229 463.341 612.583 468.329 611.561 470.463C610.96 471.725 611.17 473.318 611.351 474.52C611.501 475.241 611.591 475.902 611.531 476.593Z" fill="#FFB27D"/>
<path d="M605.519 478.005C602.422 477.555 603.234 478.366 598.905 478.276C594.576 478.216 593.103 476.713 592.922 476.082C592.742 475.541 594.846 475.121 597.101 474.64L597.131 474.67C597.131 474.67 599.867 476.262 603.444 475.992C606.36 475.782 609.367 474.67 611.381 474.52C611.501 475.181 611.591 475.872 611.531 476.533C611.321 478.516 608.585 478.456 605.519 478.005Z" fill="#C65447"/>
<path d="M675.805 412.496C675.805 412.496 636.934 412.677 629.659 417.274C622.384 421.872 605.879 469.02 605.879 469.02C605.879 469.02 607.172 470.703 608.765 470.943C611.321 471.304 612.794 470.282 612.794 470.282C612.794 470.282 634.95 448.256 636.122 442.246C637.295 436.236 637.024 430.857 639.7 430.737C642.375 430.586 675.835 434.793 680.885 425.899C685.936 417.004 681.757 408.169 681.757 408.169L675.805 412.496Z" fill="#EF7E29"/>
<path d="M632.184 475.691C632.154 477.645 629.418 477.795 626.292 477.615C623.165 477.434 624.037 478.155 619.708 478.456C615.379 478.756 613.816 477.404 613.575 476.773C613.365 476.232 615.409 475.661 617.634 475C617.904 474.91 618.175 474.82 618.476 474.76C620.971 473.979 622.534 472.025 624.578 470.252C626.532 468.6 628.877 462.8 628.877 462.8L634.769 462.229C634.769 462.229 632.545 467.428 631.733 469.651C631.252 470.974 631.583 472.536 631.883 473.708C632.034 474.339 632.184 475 632.184 475.691Z" fill="#FFB27D"/>
<path d="M626.292 477.615C623.165 477.404 624.037 478.155 619.708 478.456C615.379 478.756 613.816 477.404 613.575 476.773C613.365 476.232 615.409 475.661 617.634 475L617.664 475.03C617.664 475.03 620.52 476.383 624.067 475.842C626.953 475.391 629.869 474.039 631.853 473.708C632.004 474.369 632.184 475.03 632.154 475.721C632.124 477.645 629.418 477.795 626.292 477.615Z" fill="#C65447"/>
<path d="M683.351 414.9C683.351 414.9 649.109 416.523 642.015 421.391C634.95 426.259 624.999 467.157 624.999 467.157C624.999 467.157 626.502 469.141 628.005 469.682C629.929 470.373 632.545 469.591 632.545 469.591C632.545 469.591 646.283 453.034 647.245 446.964C648.207 440.894 649.681 437.798 652.356 437.558C655.032 437.318 681.306 442.426 693.331 431.127C700.757 424.066 683.351 414.9 683.351 414.9Z" fill="#F99746"/>
<path d="M671.626 369.284C670.965 368.113 670.153 366.009 669.582 362.223C669.642 362.583 670.634 367.361 672.678 369.976C680.615 374.453 693.151 391.281 693.061 394.466C693.061 394.466 700.757 384.279 700.847 384.219C700.847 384.219 709.505 371.568 697.841 365.408C691.918 362.283 691.648 357.775 691.618 353.869C691.588 349.932 688.672 333.254 677.549 338.423C677.549 338.423 675.655 337.732 674.843 337.912C674.843 337.912 675.534 338.002 675.895 338.333C674.572 338.333 672.678 338.573 671.145 339.565C667.117 342.209 664.802 363.815 671.626 369.284Z" fill="#B5453C"/>
<path d="M684.793 366.309C684.793 366.309 681.607 366.009 678.42 366.309C676.256 366.52 674.091 367.181 672.889 367.692C669.883 368.954 670.183 374.303 676.526 373.311C682.869 372.319 685.214 367.902 684.793 366.309Z" fill="#FFB27D"/>
<path d="M673.129 370.186C673.099 370.216 672.227 374.784 676.376 374.603C679.112 374.483 684.974 371.178 684.463 368.864C684.222 367.752 682.148 364.897 681.757 358.316L681.276 358.436L672.949 360.66C672.949 360.66 673.309 363.304 673.49 365.799C673.61 367.932 673.61 369.945 673.129 370.186Z" fill="#FFB27D"/>
<path d="M672.919 360.69C672.919 360.69 673.279 363.335 673.46 365.829C678.18 365.378 680.374 360.901 681.246 358.436L672.919 360.69Z" fill="#F4A269"/>
<path d="M682.058 357.475C682.058 357.475 684.282 353.388 684.643 350.022C684.914 347.618 683.11 338.844 674.302 340.707C674.302 340.707 671.746 341.128 669.402 342.931C667.568 344.373 664.952 347.378 668.59 354.89L669.582 357.445L682.058 357.475Z" fill="#B5453C"/>
<path d="M671.476 363.184C671.476 363.184 682.659 362.613 682.208 355.672C681.757 348.7 682.9 343.952 675.715 344.012C668.56 344.073 667.327 346.837 666.936 349.181C666.546 351.525 668.56 363.124 671.476 363.184Z" fill="#FFB27D"/>
<path d="M670.634 344.163C670.634 344.163 674.241 352.126 679.021 353.027C683.801 353.929 685.755 352.517 685.755 352.517C685.755 352.517 681.967 349.902 680.885 344.944C680.885 344.944 672.678 340.106 670.634 344.163Z" fill="#B5453C"/>
<path d="M671.446 344.764C671.446 344.764 669.281 346.747 668.83 348.55C668.379 350.353 668.379 354.019 667.297 353.959C667.297 353.959 664.621 348.55 666.996 345.244C669.552 341.759 671.446 344.764 671.446 344.764Z" fill="#B5453C"/>
<path d="M660.292 413.097C661.194 414.179 664.02 414.51 667.057 415.021C669.431 415.411 671.927 415.892 673.7 416.944C677.729 419.318 690.926 427.311 694.774 426.95C696.277 426.8 695.977 423.945 695.075 420.159C693.632 414.179 690.656 405.855 690.656 402.249C690.656 400.266 689.994 395.608 689.122 390.259C689.062 389.839 688.972 389.388 688.912 388.967C687.168 378.57 684.763 366.34 684.763 366.34C684.763 366.34 682.088 372.199 676.857 372.199C671.626 372.199 672.859 367.752 672.859 367.752C672.859 367.752 668.079 368.323 666.966 369.525C665.824 370.727 662.998 375.986 662.427 377.398C662.427 377.398 662.307 379.231 666.816 380.072C666.816 380.072 665.704 385.001 665.583 388.306C665.493 390.74 667.237 398.343 667.748 403.091C667.928 404.774 667.958 406.096 667.688 406.667C667.327 407.418 666.215 408.199 664.922 408.95C662.367 410.363 659.21 411.805 660.292 413.097Z" fill="#2B478B"/>
<path d="M664.922 408.89C662.036 413.818 672.768 415.291 674.542 416.343C678.57 418.717 690.926 427.281 694.774 426.92C696.277 426.77 695.977 423.915 695.075 420.129C693.632 414.149 690.656 405.825 690.656 402.219C690.656 400.236 689.994 395.578 689.122 390.229L684.463 385.752C684.463 385.752 679.472 398.613 674.722 400.747C672.227 401.859 669.642 402.58 667.718 403.031C667.898 404.713 667.928 406.036 667.658 406.606C667.327 407.388 666.215 408.139 664.922 408.89Z" fill="#233862"/>
<path d="M686.206 370.156C686.206 370.156 690.175 367.752 694.023 372.319C697.871 376.887 691.287 409.642 685.605 411.324C679.292 413.187 660.984 411.024 660.984 411.024L661.345 408.169C661.345 408.169 680.795 404.443 681.607 403.391C682.419 402.339 684.192 370.697 686.206 370.156Z" fill="#FFB27D"/>
<path d="M684.793 366.31C684.793 366.31 692.97 367.061 695.345 369.735C697.72 372.41 698.412 379.682 698.412 379.682C698.412 379.682 691.227 385.482 682.569 383.228L684.793 366.31Z" fill="#2B478B"/>
<path d="M662.938 407.989C662.938 407.989 656.595 406.757 655.873 407.057C655.152 407.358 651.184 410.934 651.574 411.655C651.995 412.376 653.619 412.887 655.453 412.256C657.286 411.655 661.285 411.324 662.006 410.423C662.728 409.521 662.938 407.989 662.938 407.989Z" fill="#FFB27D"/>
<path d="M668.62 414.99H657.827V416.253H668.62V414.99Z" fill="#9E332E"/>
<path d="M660.142 416.102C660.022 415.682 650.222 400.296 650.222 400.296H628.396L639.339 415.712L660.142 416.102Z" fill="#9E332E"/>
<path d="M659.21 416.253C659.09 415.832 649.26 400.266 649.26 400.266H628.396L638.798 416.253H659.21Z" fill="#B5453C"/>
<path d="M640.812 408.319C641.022 408.95 641.714 409.461 642.345 409.461C642.976 409.461 643.307 408.95 643.097 408.319C642.886 407.688 642.195 407.177 641.564 407.177C640.932 407.177 640.602 407.688 640.812 408.319Z" fill="#9E332E"/>
<path d="M811.928 362.703C811.928 362.703 817.129 365.678 818.602 365.648C820.045 365.648 825.787 364.537 827.38 365.348C828.973 366.159 831.859 369.435 832.401 370.516C833.363 372.44 828.492 371.598 826.178 369.945C825.847 369.705 825.426 369.615 825.035 369.705C823.833 369.976 821.338 370.426 820.135 369.976C818.512 369.375 810.004 368.713 810.004 368.713L811.928 362.703Z" fill="#EA9963"/>
<path d="M772.306 322.406C772.306 322.406 777.717 360.75 786.645 364.206C791.065 365.889 810.545 369.735 816.317 370.126C816.317 370.126 817.73 368.984 817.399 364.326C817.399 364.326 796.987 356.844 794.071 352.757C789.742 346.687 796.746 327.966 791.335 322.286C785.894 316.547 776.785 314.113 772.306 322.406Z" fill="#ED7D2B"/>
<path d="M774.139 403.211C775.703 405.885 777.536 408.379 779.4 410.753C785.202 418.086 791.516 424.126 792.628 429.805C792.838 430.947 793.199 432.179 793.65 433.471C794.101 434.793 794.672 436.146 795.334 437.588C797.799 442.937 801.466 448.917 805.164 454.356C811.507 463.762 817.49 471.635 817.49 471.635L828.462 471.154C828.011 470.042 823.231 457.06 816.858 441.164C814.273 434.703 811.507 427.852 808.832 421.241C808.471 420.369 808.11 419.468 807.779 418.596C806.968 416.583 806.156 414.57 805.374 412.647C799.362 397.742 794.582 385.842 794.582 385.842C794.582 385.842 770.592 376.767 768.097 382.657C766.023 387.525 767.676 392.273 774.139 403.211Z" fill="#233862"/>
<path d="M817.82 469.621C817.82 469.621 818.391 478.666 820.135 478.787C820.375 478.817 829.003 478.817 829.003 478.817L840.036 478.757C840.036 478.757 839.976 476.112 836.729 475.541C833.513 474.97 828.102 472.716 826.147 468.449C824.103 463.942 817.82 469.621 817.82 469.621Z" fill="#163560"/>
<path d="M778.889 441.194C778.889 441.194 770.712 445.071 771.223 446.753C771.283 446.964 774.5 454.987 774.5 454.987L778.649 465.204C778.649 465.204 781.084 464.152 780.422 460.937C779.761 457.722 779.851 451.892 783.068 448.496C786.465 444.92 778.889 441.194 778.889 441.194Z" fill="#163560"/>
<path d="M781.805 450.209C781.805 450.209 777.206 445.551 776.364 442.486C776.364 442.486 792.177 427.101 797.829 423.374C804.322 419.077 808.531 419.077 807.509 418.026C804.082 414.6 775.432 404.563 770.742 397.291C769.119 394.797 768.217 392.423 767.736 390.349C766.684 385.932 767.526 382.867 767.526 382.867L803.21 381.845C803.21 381.845 829.725 409.341 829.575 419.708C829.394 430.857 781.805 450.209 781.805 450.209Z" fill="#2B478B"/>
<path d="M793.409 319.972C786.194 321.835 774.23 315.164 774.23 315.164C774.23 315.164 778.889 312.039 780.603 305.188C780.693 304.857 780.753 304.497 780.843 304.136C781.595 303.986 783.038 303.685 784.541 303.355L790.042 308.283C790.042 308.283 789.922 310.326 789.231 313.842C789.11 314.443 788.96 315.104 788.81 315.825C791.786 317.659 793.409 319.972 793.409 319.972Z" fill="#FFB27D"/>
<path d="M766.594 349.872C767.616 363.755 766.263 384.91 767.435 388.576C768.458 391.732 779.971 389.869 784.571 388.817C786.285 388.426 788.329 387.855 790.463 387.224C796.416 385.391 802.879 382.747 803.571 380.794C803.601 380.703 803.631 380.643 803.631 380.583C803.691 380.313 803.691 380.042 803.631 379.772C803.39 378.78 802.518 377.698 802.398 375.234C802.278 372.5 802.308 369.254 802.188 365.769C802.188 365.378 802.188 364.957 802.128 364.567V364.416C802.128 364.356 802.128 364.266 802.128 364.206C802.037 360.33 801.827 356.243 801.586 352.186C801.436 349.632 801.256 347.138 801.075 344.704C800.564 338.483 799.873 332.954 798.941 329.438C797.438 323.729 794.101 320.002 791.065 317.298L788.87 315.405C786.435 315.946 783.519 315.585 780.903 314.353C778.078 313.001 777.085 312.039 776.604 312.4C770.081 317.418 765.391 332.894 766.594 349.872Z" fill="#F99746"/>
<path d="M790.493 387.194C796.446 385.361 802.909 382.717 803.601 380.763C803.631 380.673 803.661 380.613 803.661 380.553C803.661 380.283 803.661 380.012 803.661 379.742C803.42 378.75 802.548 377.668 802.428 375.204C802.308 372.47 802.338 369.224 802.218 365.738C802.218 365.348 802.218 364.927 802.158 364.536V364.386C802.158 364.326 802.158 364.236 802.158 364.176L778.138 333.585C778.138 333.555 761.964 367.181 790.493 387.194Z" fill="#ED7D2B"/>
<path d="M790.072 308.283C790.072 308.283 789.952 310.326 789.261 313.842C783.88 312.099 781.445 307.231 780.633 305.188C780.723 304.857 780.783 304.497 780.873 304.136C781.625 303.986 783.068 303.685 784.571 303.355L790.072 308.283Z" fill="#EA9963"/>
<path d="M790.794 311.378C790.794 311.378 779.07 309.425 780.392 302.123C781.715 294.82 781.114 289.682 788.66 290.613C796.205 291.545 797.167 294.61 797.288 297.134C797.438 299.689 793.86 311.709 790.794 311.378Z" fill="#FFB27D"/>
<path d="M837.03 373.733L838.06 374.067L846.869 346.976L845.839 346.641L837.03 373.733Z" fill="#4A75CB"/>
<path d="M808.09 373.426L837.997 374.064L838.035 372.262L808.129 371.623L808.09 373.426Z" fill="#4A75CB"/>
<path d="M808.711 374.874C808.711 374.874 818.331 377.398 821.909 377.127C825.516 376.857 828.522 375.144 828.973 374.243C829.424 373.341 830.386 371.748 827.921 372.049C825.456 372.349 822.119 372.86 822.029 372.379C821.939 371.899 824.043 371.959 824.043 371.959C824.043 371.959 824.674 371.027 823.893 370.997C823.111 370.967 820.766 370.336 819.894 370.757C819.023 371.178 818.241 372.8 817.58 372.71C816.948 372.65 809.553 369.375 809.553 369.375L808.711 374.874Z" fill="#FFB27D"/>
<path d="M774.68 323.969C774.68 323.969 775.823 362.673 784.331 367.091C788.539 369.254 807.479 375.234 813.16 376.256C813.16 376.256 814.694 375.264 814.874 370.607C814.874 370.607 795.394 360.9 792.958 356.543C789.321 350.052 798.37 332.203 793.59 325.952C788.84 319.672 780.062 316.216 774.68 323.969Z" fill="#F99746"/>
<path d="M780.603 305.188C780.603 305.188 780.483 302.694 782.016 301.251C782.016 301.251 781.475 298.757 782.467 298.336C783.459 297.916 783.669 300.019 784.12 299.689C784.571 299.358 786.615 297.795 787.457 295.482C788.329 293.168 796.265 295.962 797.197 296.383C798.129 296.804 801.105 295.271 801.677 294.039C801.677 294.039 800.023 292.717 799.272 291.725C798.52 290.734 793.319 284.033 786.044 285.926C778.769 287.819 777.777 291.305 778.198 294.28C778.619 297.255 777.627 304.196 780.603 305.188Z" fill="#2B478B"/>
<path d="M556.006 331.662C555.194 333.795 553.811 336.289 552.368 336.92C550.715 337.612 550.023 338.603 550.023 338.603L548.701 337.822L547.107 336.89C547.107 336.89 547.137 336.71 547.228 336.44C547.318 336.139 547.438 335.749 547.588 335.328C547.588 335.328 548.069 334.697 547.769 333.915C547.468 333.134 547.528 331.902 548.039 331.181C548.55 330.43 549.031 328.627 549.332 328.687C550.084 328.807 548.971 331.331 549.272 331.782C549.572 332.203 549.933 332.052 549.993 332.022C552.068 331.121 554.593 326.163 555.735 326.824C556.186 327.064 556.337 330.76 556.006 331.662Z" fill="#FFB27D"/>
<path d="M548.791 334.667L551.406 336.5C551.587 336.62 551.857 336.59 551.977 336.41L558.651 326.914C558.772 326.734 558.742 326.463 558.561 326.343L555.946 324.51C555.765 324.39 555.495 324.42 555.375 324.6L548.701 334.096C548.58 334.276 548.611 334.517 548.791 334.667Z" fill="#2B478B"/>
<path d="M551.196 336.349L552.729 337.431C552.879 337.521 553.06 337.491 553.15 337.341L559.944 327.665C560.034 327.515 560.004 327.334 559.854 327.244L558.321 326.163C558.17 326.072 557.99 326.102 557.9 326.253L551.106 335.929C551.015 336.049 551.045 336.229 551.196 336.349Z" fill="#233862"/>
<path d="M511.363 321.024C511.363 321.024 524.651 344.163 529.461 348.43L547.137 335.268C547.137 335.268 549.693 336.049 550.835 338.633C550.835 338.633 540.103 360.48 529.551 361.411C518.999 362.343 504.178 335.238 504.178 335.238L511.363 321.024Z" fill="#233862"/>
<path d="M481.301 478.486H473.635C472.673 477.975 471.801 476.773 471.53 474.97C471.17 472.506 468.374 471.154 467.772 469.141C467.171 467.127 470.238 464.272 470.238 464.272L470.749 463.611L471.29 462.92L476.37 464.122C476.37 464.122 476.491 465.324 476.581 466.887C476.641 467.999 476.671 469.291 476.611 470.403C476.461 473.107 477.362 475.992 479.767 476.533C481.541 476.893 481.481 477.945 481.301 478.486Z" fill="#233862"/>
<path d="M525.823 478.486H508.267C507.425 477.464 507.726 473.648 507.876 472.416C507.906 472.175 507.906 472.025 507.906 472.025C507.906 472.025 513.888 467.247 514.73 470.913C514.76 471.034 514.79 471.154 514.82 471.244C515.842 474.67 520.502 476.232 523.208 476.683C524.951 476.923 525.583 477.855 525.823 478.486Z" fill="#233862"/>
<path d="M522.486 380.583C522.486 380.583 521.584 391.942 520.502 405.555C519.059 424.096 517.315 446.843 517.135 451.141C516.834 458.623 515.632 470.613 515.632 470.613C515.632 470.613 512.776 473.468 507.094 472.266C507.094 472.266 502.014 455.167 500.571 437.077C500.54 436.777 500.54 436.476 500.51 436.176C499.158 417.755 497.053 378.99 497.053 378.99L522.486 380.583Z" fill="#F99746"/>
<path d="M522.486 380.583C522.486 380.583 521.584 391.942 520.502 405.555L500.571 437.077C500.54 436.777 500.54 436.476 500.51 436.176C499.158 417.755 497.053 378.99 497.053 378.99L522.486 380.583Z" fill="#ED7D2B"/>
<path d="M518.338 381.935C518.338 381.935 501.953 423.014 491.161 442.336C480.369 461.658 477.002 467.037 477.002 467.037C477.002 467.037 470.839 464.573 470.268 462.89C470.268 462.89 474.386 425.598 481.601 416.523C485.69 411.384 490.47 395.969 490.71 390.59C490.921 385.211 492.183 374.543 492.183 374.543L518.338 381.935Z" fill="#F99746"/>
<path d="M514.249 322.016C507.846 324.029 496.753 318.59 496.753 318.59C496.753 318.59 502.675 314.143 502.344 304.947L507.305 308.944L510.672 311.649C510.672 311.649 510.672 313.241 510.281 316.036C510.191 316.787 510.07 317.598 509.92 318.5C512.686 320.002 514.249 322.016 514.249 322.016Z" fill="#FFB27D"/>
<path d="M510.672 311.649C510.672 311.649 510.672 313.241 510.281 316.036C506.553 315.405 502.314 309.365 502.314 309.365C504.208 308.824 505.862 308.704 507.305 308.914L510.672 311.649Z" fill="#ED975D"/>
<path d="M512.626 311.498C512.626 311.498 502.044 313.241 501.052 306.66C500.06 300.049 498.015 295.842 504.749 294.43C511.453 293.018 513.167 295.361 514.039 297.465C514.88 299.568 515.361 310.867 512.626 311.498Z" fill="#FFB27D"/>
<path d="M523.208 381.515C523.027 381.665 522.787 381.785 522.546 381.785C520.141 381.755 513.137 383.077 507.184 382.476C502.164 381.996 497.745 380.523 492.995 378.39C492.363 378.119 490.92 377.338 490.95 376.617C490.981 375.835 491.041 374.723 491.131 373.311C491.462 368.413 492.063 359.969 491.492 350.233C491.401 348.43 491.341 346.627 491.341 344.854C491.281 331.662 493.897 320.032 499.188 316.096C499.639 315.765 502.404 317.118 504.93 318.38C507.274 319.522 509.619 319.672 511.814 319.221L514.039 321.174C516.744 323.669 519.69 327.064 520.983 332.233C522.065 336.62 522.727 344.553 523.057 352.757C523.208 356.483 523.358 360.239 523.388 363.785V363.905C523.418 364.266 523.418 364.657 523.418 364.987C523.478 374.153 523.358 381.395 523.208 381.515Z" fill="#2B478B"/>
<path d="M491.101 373.311C491.432 368.413 492.033 359.969 491.462 350.233C491.371 348.43 491.311 346.627 491.311 344.854C493.506 339.535 495.31 335.689 495.31 335.689H500.841C500.811 335.658 504.87 363.304 491.101 373.311Z" fill="#233862"/>
<path d="M462.812 404.653L486.381 408.019C489.448 408.47 492.303 406.306 492.754 403.241L494.197 393.024C494.648 389.959 492.484 387.104 489.417 386.653L465.848 383.288C462.782 382.837 459.926 385.001 459.475 388.066L458.032 398.283C457.581 401.348 459.746 404.203 462.812 404.653Z" fill="#233862"/>
<path d="M490.74 389.688C490.079 388.036 488.636 386.713 486.832 386.293C486.652 386.263 486.471 386.203 486.291 386.173L481.601 385.511L481.902 383.318C481.962 382.837 481.842 382.326 481.541 381.936C481.24 381.545 480.789 381.274 480.308 381.214L479.076 381.034L474.146 380.343L473.244 380.223C472.222 380.072 471.29 380.794 471.139 381.815L470.839 384.009L462.752 382.867C459.686 382.416 456.8 384.58 456.349 387.675L454.876 398.012C454.425 401.077 456.589 403.962 459.686 404.413L483.194 407.779C483.615 407.839 484.006 407.839 484.427 407.809C485.058 407.748 485.69 407.598 486.261 407.358C488.004 406.607 489.297 404.984 489.598 402.971L491.071 392.633C491.251 391.552 491.101 390.59 490.74 389.688ZM472.342 381.936C472.372 381.635 472.643 381.395 472.913 381.335C472.973 381.335 473.063 381.335 473.124 381.335L474.176 381.485L478.054 382.026L480.158 382.326C480.549 382.386 480.789 382.747 480.759 383.107L480.459 385.301L472.041 384.099L472.342 381.936Z" fill="#2B478B"/>
<path d="M480.729 374.273C480.729 374.273 479.497 375.925 479.437 376.586C479.106 381.064 481.15 381.665 475.859 384.159C475.859 384.159 473.605 385.031 473.575 383.258C473.544 381.515 475.138 381.485 474.837 379.021C474.506 376.196 474.536 376.166 476.4 374.693L477.633 372.65L480.729 374.273Z" fill="#FFB27D"/>
<path d="M477.573 375.535C479.557 375.925 481.721 375.775 481.721 375.775C481.721 375.775 487.614 357.535 488.395 355.882C489.147 354.229 505.952 334.486 505.952 334.486L498.947 316.997C498.947 316.997 480.789 347.318 478.956 351.585C475.919 358.617 474.837 374.393 474.837 374.393C474.837 374.393 476.01 375.204 477.573 375.535Z" fill="#2B478B"/>
<path d="M501.052 305.999C501.052 305.999 502.134 305.819 501.953 304.316C501.773 302.814 501.773 300.861 503.006 301.221C504.208 301.582 504.268 302.573 504.779 302.002C505.29 301.432 505.29 299.028 508.898 298.877C512.505 298.697 513.979 299.959 515.662 299.238C517.346 298.487 517.436 295.962 517.436 295.962C517.436 295.962 516.955 296.864 516.233 297.164C516.233 297.164 519.029 293.318 515.782 290.704C512.536 288.059 509.229 289.802 507.335 289.922C503.186 290.163 500.51 290.433 499.158 293.138C497.805 295.842 498.376 303.385 501.052 305.999Z" fill="#2B478B"/>
<path d="M478.775 376.226C478.775 376.226 479.978 377.458 480.038 377.999C480.278 379.652 480.82 380.373 480.549 380.553C479.978 380.914 479.196 379.712 478.835 378.6C478.475 377.488 478.775 376.226 478.775 376.226Z" fill="#FFB27D"/>
<path d="M925.233 480.68H71.0975C70.5564 480.68 70.1055 480.229 70.1055 479.688V479.268C70.1055 478.727 70.5564 478.276 71.0975 478.276H925.233C925.774 478.276 926.225 478.727 926.225 479.268V479.688C926.225 480.229 925.774 480.68 925.233 480.68Z" fill="#2E3552"/>
<path d="M279.22 263.839C282.738 270.39 287.397 273.665 287.397 273.665H306.818C306.818 273.665 276.545 258.851 279.22 263.839Z" fill="#233862"/>
<path d="M292.749 314.083C293.23 314.684 293.29 315.315 293.019 316.006C292.508 317.268 290.945 318.65 289.141 320.033C288.901 320.213 288.69 320.363 288.51 320.513C288.45 320.543 288.42 320.603 288.359 320.634C288.329 320.664 288.299 320.694 288.239 320.724C286.556 322.196 287.157 322.557 284.091 325.592C280.603 329.017 278.288 329.018 277.627 328.687C277.086 328.386 278.258 326.553 279.581 324.51C279.641 324.42 279.701 324.3 279.762 324.21C279.942 323.939 280.122 323.669 280.273 323.368C281.836 320.874 281.475 319.672 281.235 315.916C281.084 312.821 276.996 298.697 276.996 298.697L283.519 297.766C283.519 297.766 285.173 308.974 287.277 310.747C288.39 311.709 289.682 311.739 290.795 312.46C290.885 312.52 290.945 312.55 291.035 312.61C291.606 313.031 292.238 313.482 292.749 314.083Z" fill="#FFB27D"/>
<path d="M292.748 314.083C293.229 314.684 293.29 315.315 293.019 316.006C292.418 317.268 290.885 318.65 289.141 320.002C288.901 320.183 288.72 320.333 288.54 320.513C288.48 320.543 288.45 320.603 288.389 320.634C288.359 320.664 288.329 320.694 288.269 320.724C286.586 322.196 287.187 322.557 284.121 325.592C280.633 329.017 278.319 329.018 277.657 328.687C277.116 328.386 278.288 326.553 279.611 324.51C280.273 324.3 283.369 323.128 285.774 320.243C287.878 317.689 289.321 314.383 290.764 312.49C290.855 312.55 290.915 312.58 291.005 312.64C291.606 313.031 292.237 313.482 292.748 314.083Z" fill="#233862"/>
<path d="M240.53 308.584C240.079 310.567 237.223 310.176 234.067 309.305C230.91 308.433 231.631 309.395 227.092 308.764C222.553 308.133 221.23 306.42 221.11 305.729C220.989 305.128 223.244 304.978 225.679 304.767C225.98 304.737 226.28 304.707 226.581 304.677C229.317 304.407 231.331 302.724 233.856 301.341C236.231 300.049 239.869 294.58 239.869 294.58L246.091 295.241C246.091 295.241 242.694 300.109 241.372 302.243C240.59 303.505 240.59 305.158 240.65 306.48C240.65 307.171 240.68 307.892 240.53 308.584Z" fill="#FFB27D"/>
<path d="M234.067 309.305C230.91 308.433 231.631 309.395 227.092 308.764C222.553 308.133 221.23 306.42 221.11 305.729C220.989 305.128 223.244 304.978 225.679 304.767L225.709 304.827C225.709 304.827 228.385 306.841 232.143 307.021C235.209 307.171 238.516 306.39 240.62 306.48C240.65 307.171 240.68 307.892 240.5 308.614C240.079 310.597 237.223 310.176 234.067 309.305Z" fill="#233862"/>
<path d="M265.482 269.458L270.863 285.265L277.898 305.909C277.898 305.909 279.942 306.149 281.956 305.639C283.79 305.158 285.924 303.836 285.924 303.836C285.924 303.836 284.421 281.839 280.814 269.128C279.882 265.852 278.83 263.208 277.627 261.705C271.705 254.373 265.482 269.458 265.482 269.458Z" fill="#233862"/>
<path d="M272.066 244.757C275.914 243.645 286.736 245.509 297.619 247.943L300.024 244.246L323.683 243.044C323.683 243.044 330.988 260.503 326.449 271.412C325.787 273.004 324.585 273.725 322.48 273.695C322.48 273.695 322.3 273.695 322.059 273.695C322.059 273.695 308.02 273.816 303.451 273.695C291.726 273.365 278.83 264.71 277.146 264.35C274.38 263.719 273.118 269.248 270.202 274.988C267.256 280.727 243.416 300.049 243.416 300.049C243.416 300.049 239.839 299.989 238.365 299.388C236.802 298.757 236.231 297.946 236.231 297.946C236.231 297.946 263.408 247.281 272.066 244.757Z" fill="#2B478B"/>
<path d="M301.016 211.762C309.283 216.63 326.088 226.667 326.178 226.607C326.178 226.607 332.371 229.131 336.008 226.878C342.051 223.091 345.508 212.604 334.926 203.198C329.635 198.51 325.847 197.308 325.457 190.036C325.246 186.1 320.226 172.968 311.237 173.929C310.485 174.02 309.734 174.05 308.982 174.02C307.93 173.959 306.216 174.05 304.413 175.071C299.242 177.896 288.48 209.629 301.016 211.762Z" fill="#233862"/>
<path d="M308.171 208.006C308.141 208.036 312.259 209.569 315.085 208.397C317.731 207.315 319.835 203.048 319.805 203.048C318.602 202.958 317.34 201.876 316.498 195.025L315.987 195.205L307.359 198.06C307.359 198.06 307.9 200.824 308.231 203.439C308.531 205.602 308.652 207.706 308.171 208.006Z" fill="#FFB27D"/>
<path d="M307.389 198.03C307.389 198.03 307.93 200.794 308.261 203.409C313.191 202.657 315.265 197.819 316.017 195.175L307.389 198.03Z" fill="#ED975D"/>
<path d="M306.036 200.704C306.036 200.704 317.76 199.442 316.889 192.17C315.987 184.868 316.919 179.819 309.373 180.3C301.857 180.781 300.745 183.756 300.445 186.25C300.144 188.744 302.94 200.854 306.036 200.704Z" fill="#FFB27D"/>
<path d="M300.956 182.283C300.956 182.283 308.261 188.924 313.341 189.586C318.422 190.247 320.376 188.654 320.376 188.654C320.376 188.654 317.43 186.07 315.746 182.013C315.235 180.811 314.153 179.97 312.86 179.819C309.253 179.429 302.369 179.098 300.956 182.283Z" fill="#233862"/>
<path d="M305.645 181.833C305.645 181.833 303.09 184.176 302.248 185.949C301.437 187.662 301.106 191.809 301.647 193.462C301.647 193.462 297.949 185.769 300.264 182.163C302.729 178.317 305.645 181.833 305.645 181.833Z" fill="#233862"/>
<path d="M297.859 224.954C297.558 248.634 297.438 243.676 299.963 245.989C300.565 246.56 302.308 246.921 304.623 247.131C311.868 247.822 324.645 246.951 325.186 245.629C326.99 241.031 325.847 239.559 327.441 232.497C327.621 231.746 327.801 230.934 328.042 230.063C329.334 225.225 330.507 223.602 326.599 215.639C323.051 208.427 319.324 202.567 318.963 202.777C308.922 208.367 308.261 203.409 308.261 203.409C308.261 203.409 298.009 213.415 297.859 224.954Z" fill="white"/>
<path d="M270.863 285.265L277.898 305.909C277.898 305.909 279.942 306.149 281.956 305.639C283.79 305.158 285.924 303.836 285.924 303.836C285.924 303.836 284.421 281.839 280.814 269.128L270.863 285.265Z" fill="#2B478B"/>
<path d="M308.261 203.408C308.261 203.408 298.04 204.851 296.717 209.208C295.394 213.565 287.668 239.108 287.668 239.108C287.668 239.108 292.809 240.19 295.274 237.846C297.739 235.532 304.202 215.909 304.202 215.909L308.261 203.408Z" fill="white"/>
<path d="M304.623 247.131C311.868 247.822 324.645 246.951 325.186 245.629C326.99 241.031 325.847 239.559 327.441 232.497L324.194 222.55C324.194 222.55 324.465 233.549 321.158 236.343C317.851 239.138 307.75 241.542 306.126 243.916C305.345 245.058 304.804 246.2 304.623 247.131Z" fill="#EBF3FF"/>
<path d="M313.071 242.744C313.071 242.744 305.946 240.941 304.774 241.572C303.601 242.173 300.715 244.427 300.324 245.208C299.964 245.989 302.91 244.667 303.872 244.427C304.503 244.277 306.096 244.878 306.908 245.178C310.245 246.41 312.349 245.869 312.349 245.869L313.071 242.744Z" fill="#FFB27D"/>
<path d="M318.963 202.747C318.963 202.747 328.553 203.589 331.77 208.337C336.279 215.008 344.817 243.074 339.375 246.65C333.273 250.677 312.049 247.011 312.049 247.011C312.049 247.011 311.417 243.675 312.469 242.113C313.492 240.55 329.605 238.387 330.357 237.666C331.108 236.944 321.518 223.001 321.578 220.777C321.608 218.554 318.963 202.747 318.963 202.747Z" fill="white"/>
<path d="M304.383 243.525C304.383 243.525 302.819 245.418 302.338 245.629C301.827 245.839 301.527 245.779 301.527 245.779L302.579 243.976L304.383 243.525Z" fill="#FFB27D"/>
<path d="M304.773 241.542L300.354 243.525C300.354 243.525 300.535 243.826 301.076 243.826C301.617 243.826 302.97 243.345 302.97 243.345L304.773 241.542Z" fill="#FFB27D"/>
<path d="M302.248 248.604L267.736 247.672L258.086 221.589L292.508 222.52L302.248 248.604Z" fill="#F99746"/>
<path d="M267.376 246.65L312.92 247.882L312.89 248.904L267.736 247.672L267.376 246.65Z" fill="#ED7D2B"/>
<path d="M276.815 235.021C276.575 234.12 277.116 233.398 278.018 233.398C278.92 233.428 279.852 234.18 280.092 235.111C280.333 236.013 279.792 236.734 278.89 236.734C277.988 236.674 277.056 235.923 276.815 235.021Z" fill="white"/>
</g>
</svg>
